<?xml version="1.0" standalone="no"?>
<!DOCTYPE svg PUBLIC "-//W3C//DTD SVG 20010904//EN"
 "http://www.w3.org/TR/2001/REC-SVG-20010904/DTD/svg10.dtd">
<svg version="1.0" xmlns="http://www.w3.org/2000/svg"
 width="2025.000000pt" height="2025.000000pt" viewBox="0 0 2025.000000 2025.000000"
 preserveAspectRatio="xMidYMid meet">
<metadata>
Created by potrace 1.16, written by Peter Selinger 2001-2019
</metadata>
<g transform="translate(0.000000,2025.000000) scale(0.100000,-0.100000)"
fill="#000000" stroke="none">
<path d="M8998 17050 c-698 -33 -1381 -153 -1909 -336 -401 -139 -796 -349
-1029 -547 l-76 -64 -124 -27 c-1259 -275 -2517 -1002 -3294 -1901 -257 -297
-481 -631 -621 -926 -34 -72 -43 -82 -148 -165 -151 -119 -481 -450 -606 -608
-382 -481 -626 -1020 -725 -1601 -45 -263 -61 -661 -36 -926 45 -485 194
-1018 399 -1426 65 -130 177 -304 268 -415 114 -140 297 -315 426 -407 36 -26
46 -39 41 -53 -12 -39 -5 -345 11 -448 92 -613 455 -1162 1036 -1567 446 -311
1002 -532 1734 -687 185 -39 262 -66 300 -104 27 -26 27 -29 22 -122 -9 -185
-143 -687 -394 -1480 -207 -655 -243 -810 -224 -960 56 -435 425 -770 849
-770 154 0 277 31 423 107 183 95 317 221 750 703 710 790 1179 1178 1668
1376 735 299 1131 541 1521 933 151 151 237 255 342 411 39 58 71 106 73 108
1 2 56 -19 121 -47 569 -239 1144 -387 1677 -430 163 -14 518 -14 667 -1 892
80 1657 430 2355 1077 77 71 197 193 267 270 l128 140 142 -34 c603 -140 1273
-177 1858 -102 1137 145 2061 710 2668 1632 567 861 664 1856 275 2842 -99
252 -273 574 -426 787 -49 68 -67 107 -109 228 -223 648 -552 1239 -968 1741
-129 155 -457 483 -610 611 -649 541 -1428 936 -2344 1189 l-159 44 -57 85
c-229 340 -509 581 -895 771 -487 240 -1071 325 -1565 229 l-101 -19 -92 72
c-514 401 -1298 668 -2282 776 -368 41 -871 57 -1227 41z m950 -805 c740 -62
1393 -230 1826 -470 59 -33 119 -70 134 -81 l27 -22 -96 -100 c-100 -104 -213
-261 -269 -375 -18 -37 -36 -67 -40 -67 -4 0 -59 22 -121 49 -223 95 -486 171
-744 216 -296 51 -409 59 -770 60 -482 0 -579 -17 -673 -119 -65 -71 -85 -119
-90 -216 -3 -70 0 -95 18 -143 30 -79 108 -157 186 -186 71 -27 114 -29 344
-12 345 24 767 -12 1090 -94 197 -50 462 -156 586 -233 l31 -20 6 -138 c13
-291 104 -655 197 -796 61 -91 205 -158 308 -143 81 12 150 44 200 93 68 67
95 129 100 227 3 72 0 90 -33 180 -159 437 -130 856 79 1150 67 93 209 222
317 286 169 100 270 127 509 136 544 18 1062 -206 1365 -592 82 -105 144 -215
199 -351 391 -971 1054 -1876 1767 -2414 139 -104 186 -125 289 -125 130 0
240 69 301 187 17 32 24 65 27 128 8 159 -32 219 -253 385 -147 110 -476 434
-629 620 -195 236 -381 504 -534 770 -44 77 -79 141 -78 143 2 1 68 -22 147
-51 1278 -476 2173 -1271 2685 -2387 l67 -144 -6 -131 c-7 -166 -38 -292 -103
-415 -259 -492 -1038 -662 -1759 -385 -370 142 -650 358 -1042 804 -334 380
-776 967 -1150 1526 -66 99 -138 196 -159 214 -56 50 -118 74 -204 79 -104 6
-174 -21 -251 -97 -77 -76 -103 -144 -97 -256 6 -101 11 -111 203 -395 273
-404 574 -815 837 -1143 65 -81 118 -151 118 -156 0 -10 -113 -61 -200 -89
-85 -28 -227 -52 -306 -52 -406 0 -844 274 -1201 751 -136 181 -195 221 -334
222 -64 1 -85 -4 -140 -30 -35 -17 -82 -48 -103 -69 -81 -81 -115 -214 -82
-327 44 -152 365 -528 636 -746 561 -451 1164 -583 1761 -385 99 33 311 131
401 185 l36 22 104 -94 c474 -433 974 -677 1548 -755 150 -21 483 -23 610 -5
562 81 1006 325 1270 699 l64 92 28 -45 c187 -301 331 -724 367 -1084 71 -687
-204 -1373 -775 -1936 -436 -430 -984 -690 -1664 -789 -170 -25 -288 -31 -590
-30 -450 1 -813 51 -1248 170 -144 40 -200 63 -322 136 -265 159 -441 345
-500 527 -20 62 -22 85 -17 179 11 236 110 388 275 423 122 26 364 10 687 -47
759 -133 809 -139 1170 -139 311 0 400 9 606 60 352 89 663 263 916 513 54 54
76 85 93 129 90 236 -85 477 -334 461 -94 -6 -151 -33 -233 -110 -382 -357
-817 -453 -1548 -343 -88 14 -284 47 -435 74 -435 78 -507 86 -750 86 -172 0
-232 -4 -300 -19 -124 -27 -239 -71 -332 -128 l-83 -50 -100 32 c-490 157
-951 436 -1305 790 -662 660 -1066 1650 -1144 2805 -15 228 -27 266 -104 343
-63 64 -139 95 -232 95 -137 1 -243 -63 -307 -184 -28 -54 -28 -54 -27 -244 1
-238 38 -560 100 -864 l7 -34 -184 6 c-688 25 -1179 189 -1510 505 -123 117
-206 231 -289 397 -157 316 -208 578 -230 1180 -13 361 -31 534 -86 820 -149
767 -533 1318 -1078 1546 -56 24 -105 46 -109 50 -13 10 243 91 453 143 377
93 777 151 1225 176 217 12 758 4 983 -15z m-3080 -890 c306 -59 520 -199 685
-446 114 -173 202 -404 256 -675 43 -214 60 -367 71 -628 27 -626 56 -854 150
-1173 61 -206 178 -461 283 -618 l46 -69 -72 -31 c-377 -164 -690 -409 -934
-730 -264 -349 -445 -785 -498 -1204 -15 -119 -15 -134 -1 -193 18 -68 69
-152 114 -185 76 -56 113 -68 212 -68 89 0 99 2 158 34 110 60 162 143 182
291 43 329 190 685 388 940 232 298 538 489 950 595 l64 16 76 -45 c241 -141
542 -254 844 -316 276 -56 543 -81 875 -82 l241 0 7 -26 c17 -70 156 -401 240
-570 212 -430 460 -784 768 -1095 163 -165 226 -222 370 -334 325 -255 716
-472 1085 -603 75 -27 91 -36 87 -50 -16 -50 -37 -187 -42 -276 -25 -433 204
-857 634 -1172 50 -37 92 -70 92 -73 1 -3 -73 -78 -162 -166 -566 -554 -1172
-857 -1878 -939 -179 -20 -628 -15 -809 10 -269 38 -546 103 -830 198 -296 98
-401 145 -686 311 -337 194 -656 371 -799 443 -85 43 -124 57 -171 61 -176 16
-335 -107 -362 -281 -23 -144 49 -290 173 -353 153 -77 365 -198 365 -208 0
-6 -23 -50 -51 -96 -150 -251 -392 -492 -694 -694 -235 -157 -431 -257 -769
-395 -420 -171 -719 -354 -1106 -677 -272 -227 -550 -508 -1016 -1023 -326
-360 -433 -460 -492 -460 -32 0 -72 36 -72 66 0 31 48 195 200 684 317 1023
404 1373 417 1681 l6 135 161 12 c181 14 318 39 451 83 471 158 790 516 871
979 21 124 14 339 -15 455 -47 191 -145 357 -315 535 -383 403 -1031 673
-1866 779 -213 27 -482 44 -615 39 -94 -4 -117 -8 -162 -31 -76 -39 -120 -82
-156 -151 -28 -55 -31 -70 -32 -151 0 -72 4 -99 22 -137 45 -99 152 -183 246
-193 23 -3 138 -10 256 -15 664 -32 1247 -188 1611 -432 164 -109 321 -283
350 -387 15 -55 12 -200 -6 -262 -65 -221 -252 -366 -541 -421 -89 -17 -391
-16 -508 1 -104 15 -307 56 -380 76 -27 8 -138 33 -245 55 -600 126 -1003 266
-1360 470 -518 296 -843 747 -885 1225 -11 128 10 245 91 510 40 127 159 329
286 481 204 245 455 408 737 479 379 95 809 22 1286 -220 207 -105 462 -266
665 -420 652 -492 1550 -852 2445 -980 720 -102 1467 -50 2075 145 l95 30 25
-32 c313 -403 582 -636 1005 -871 345 -191 816 -336 1110 -339 130 -2 194 21
270 97 74 75 98 141 93 255 -5 103 -33 164 -102 228 -66 61 -122 82 -246 92
-374 31 -801 215 -1175 508 -81 64 -325 308 -325 325 0 7 46 36 101 66 214
116 536 336 666 455 86 79 115 137 121 241 5 105 -21 178 -90 251 -59 63 -129
95 -219 102 -98 7 -162 -15 -261 -93 -542 -420 -1111 -672 -1761 -779 -218
-36 -323 -46 -577 -53 -753 -20 -1520 159 -2227 519 -295 150 -620 360 -680
437 -18 25 -61 69 -94 99 -206 186 -397 548 -490 927 -55 226 -71 363 -76 677
-7 401 14 684 77 998 61 304 146 544 303 850 55 107 134 263 176 345 274 538
385 1101 306 1555 -56 322 -218 613 -444 799 -37 29 -68 55 -69 56 -8 7 290
99 454 140 181 46 360 79 509 94 122 13 362 6 463 -14z m-1984 -701 c316 -81
473 -411 411 -864 -37 -280 -130 -541 -315 -890 -245 -462 -335 -683 -425
-1037 -87 -343 -131 -688 -141 -1128 -11 -450 32 -824 137 -1176 16 -54 29
-102 29 -107 0 -5 -43 3 -95 19 -242 72 -457 103 -710 103 -331 0 -581 -56
-870 -197 -361 -176 -703 -497 -921 -863 -37 -63 -71 -114 -75 -114 -19 0
-223 229 -282 316 -276 411 -459 1173 -418 1740 37 501 180 923 452 1330 66
99 218 296 237 308 6 4 12 -39 16 -112 28 -513 98 -899 248 -1360 57 -176 154
-425 218 -555 76 -156 181 -223 335 -215 165 9 284 113 314 275 14 71 0 147
-44 241 -131 277 -261 687 -325 1017 -80 419 -91 861 -29 1225 24 141 78 350
117 451 45 116 228 387 396 583 203 238 622 619 786 714 25 14 86 52 135 85
159 104 336 181 495 215 74 16 255 14 324 -4z"/>
</g>
</svg>
